<?xml version="1.0" encoding="utf-8"?>
<!-- Generator: Adobe Illustrator 16.2.1, SVG Export Plug-In . SVG Version: 6.00 Build 0)  -->
<!DOCTYPE svg PUBLIC "-//W3C//DTD SVG 1.1//EN" "http://www.w3.org/Graphics/SVG/1.1/DTD/svg11.dtd">
<svg version="1.1" id="Layer_1" xmlns="http://www.w3.org/2000/svg" xmlns:xlink="http://www.w3.org/1999/xlink" x="0px" y="0px"
	 width="300px" height="100px" viewBox="0 0 300 100" enable-background="new 0 0 300 100" xml:space="preserve">
<g>
	<g>
		<g>
			<path fill="#FFFFFF" d="M28.07,65.949H10.162c-1.378,0-2.5-1.121-2.5-2.5V45.543c0-1.378,1.122-2.5,2.5-2.5h17.906
				c1.378,0,2.5,1.122,2.5,2.5l0.001,17.906C30.57,64.828,29.448,65.949,28.07,65.949z M10.162,44.043c-0.827,0-1.5,0.673-1.5,1.5
				v17.906c0,0.826,0.673,1.5,1.5,1.5h17.907c0.827,0,1.5-0.674,1.5-1.5l-0.001-17.906c0-0.827-0.673-1.5-1.5-1.5H10.162z"/>
		</g>
	</g>
	<path fill="#FFFFFF" d="M15.786,55.062c-0.454-0.312-0.454-0.82,0-1.133l4.779-3.287c0.454-0.312,0.825-0.115,0.825,0.436v6.818
		c0,0.554-0.371,0.742-0.825,0.438L15.786,55.062z"/>
</g>
<g>
	<g>
		<g>
			<path fill="#FFFFFF" d="M77.867,65.949H59.959c-1.378,0-2.499-1.121-2.499-2.5V45.543c0-1.378,1.121-2.5,2.499-2.5h17.908
				c1.377,0,2.499,1.122,2.499,2.5v17.906C80.366,64.828,79.244,65.949,77.867,65.949z M59.959,44.043c-0.826,0-1.5,0.673-1.5,1.5
				v17.906c0,0.826,0.674,1.5,1.5,1.5h17.908c0.826,0,1.499-0.674,1.499-1.5V45.543c0-0.827-0.673-1.5-1.499-1.5H59.959z"/>
		</g>
	</g>
	<path fill="#FFFFFF" d="M72.243,53.932c0.454,0.312,0.454,0.82,0,1.131l-4.778,3.279c-0.454,0.311-0.825,0.115-0.825-0.434v-6.823
		c0-0.55,0.371-0.745,0.825-0.435L72.243,53.932z"/>
</g>
<g>
	<g>
		<path fill="#FFFFFF" d="M52.97,43.043H35.06c-1.378,0-2.501,1.122-2.501,2.5v17.906c0,1.378,1.123,2.5,2.501,2.5h17.909
			c1.378,0,2.5-1.122,2.5-2.5V45.543C55.47,44.165,54.349,43.043,52.97,43.043z M48.275,53.329l-3.282,4.778
			c-0.243,0.354-0.599,0.559-0.978,0.559s-0.735-0.204-0.979-0.559l-3.279-4.778c-0.258-0.374-0.308-0.774-0.138-1.099
			c0.17-0.323,0.528-0.508,0.982-0.508h6.824c0.454,0,0.812,0.186,0.981,0.508C48.58,52.555,48.532,52.955,48.275,53.329z"/>
		<path fill="#FFFFFF" d="M52.97,18.146H35.06c-1.378,0-2.501,1.122-2.501,2.5v17.907c0,1.378,1.123,2.5,2.501,2.5h17.909
			c1.378,0,2.5-1.122,2.5-2.5V20.646C55.47,19.268,54.349,18.146,52.97,18.146z M48.411,31.864c-0.17,0.324-0.527,0.51-0.982,0.51
			h-6.825c-0.454,0-0.812-0.186-0.982-0.509c-0.17-0.323-0.121-0.724,0.136-1.098l3.282-4.78c0.484-0.708,1.471-0.708,1.956,0
			l3.278,4.779C48.531,31.14,48.58,31.541,48.411,31.864z"/>
	</g>
</g>
<g>
	<path fill="#FFFFFF" d="M240.732,43.043h-17.906c-1.379,0-2.5,1.122-2.5,2.5v17.906c0,1.378,1.121,2.5,2.5,2.5h17.906
		c1.379,0,2.5-1.122,2.5-2.5V45.543C243.232,44.165,242.111,43.043,240.732,43.043z M234.553,57.908c0,0.742-0.479,1.082-0.92,1.082
		c-0.229,0-0.459-0.079-0.688-0.235l-4.779-3.28c-0.354-0.244-0.561-0.601-0.561-0.979s0.203-0.734,0.559-0.979l4.779-3.292
		c0.229-0.157,0.461-0.235,0.688-0.235c0.441,0,0.926,0.338,0.926,1.082L234.553,57.908L234.553,57.908z"/>
	<path fill="#FFFFFF" d="M290.527,43.043h-17.908c-1.379,0-2.5,1.122-2.5,2.5v17.906c0,1.378,1.121,2.5,2.5,2.5h17.908
		c1.379,0,2.5-1.122,2.5-2.5V45.543C293.027,44.165,291.906,43.043,290.527,43.043z M285.184,55.475l-4.776,3.279
		c-0.229,0.156-0.46,0.236-0.688,0.236c-0.441,0-0.92-0.338-0.92-1.082v-6.823c0-0.744,0.479-1.082,0.92-1.082
		c0.229,0,0.459,0.079,0.688,0.235l4.778,3.282c0.354,0.242,0.558,0.604,0.558,0.979S285.539,55.232,285.184,55.475z"/>
</g>
<g>
	<g>
		<g>
			<path fill="#FFFFFF" d="M265.629,65.949h-17.906c-1.379,0-2.5-1.121-2.5-2.5V45.543c0-1.378,1.121-2.5,2.5-2.5h17.906
				c1.379,0,2.5,1.122,2.5,2.5v17.906C268.129,64.828,267.008,65.949,265.629,65.949z M247.723,44.043c-0.826,0-1.5,0.673-1.5,1.5
				v17.906c0,0.826,0.674,1.5,1.5,1.5h17.906c0.826,0,1.5-0.674,1.5-1.5V45.543c0-0.827-0.674-1.5-1.5-1.5H247.723z"/>
		</g>
	</g>
	<path fill="#FFFFFF" d="M257.242,57.824c-0.312,0.455-0.82,0.455-1.133,0l-3.279-4.778c-0.312-0.453-0.105-0.823,0.438-0.823h6.819
		c0.554,0,0.743,0.37,0.438,0.823L257.242,57.824z"/>
</g>
<g>
	<g>
		<g>
			<path fill="#FFFFFF" d="M265.629,41.053h-17.906c-1.379,0-2.5-1.122-2.5-2.5V20.646c0-1.378,1.121-2.5,2.5-2.5h17.906
				c1.379,0,2.5,1.122,2.5,2.5v17.907C268.129,39.932,267.008,41.053,265.629,41.053z M247.723,19.146c-0.826,0-1.5,0.673-1.5,1.5
				v17.907c0,0.827,0.674,1.5,1.5,1.5h17.906c0.826,0,1.5-0.673,1.5-1.5V20.646c0-0.827-0.674-1.5-1.5-1.5H247.723z"/>
		</g>
	</g>
	<path fill="#FFFFFF" d="M256.111,26.271c0.312-0.454,0.82-0.454,1.131,0l3.279,4.779c0.312,0.453,0.114,0.824-0.435,0.824h-6.823
		c-0.55,0-0.744-0.371-0.437-0.824L256.111,26.271z"/>
</g>
<g>
	<path fill="#FFFFFF" d="M233.34,77.377h1.891c1.752,0,2.769,1.008,2.769,2.423v0.015c0,1.414-1.028,2.465-2.795,2.465h-1.862
		L233.34,77.377L233.34,77.377z M235.252,81.074c0.812,0,1.352-0.448,1.352-1.239V79.82c0-0.784-0.539-1.239-1.352-1.239h-0.555
		v2.493H235.252z"/>
	<path fill="#FFFFFF" d="M241.494,77.377h3.941v1.155h-2.598v0.741h2.354v1.072h-2.354v0.776h2.633v1.153h-3.978L241.494,77.377
		L241.494,77.377z"/>
	<path fill="#FFFFFF" d="M250.16,78.566h-1.471v-1.189h4.301v1.189h-1.473v3.713h-1.357V78.566L250.16,78.566z"/>
	<path fill="#FFFFFF" d="M257.449,77.342h1.31l2.089,4.938h-1.457l-0.356-0.875h-1.892l-0.352,0.875h-1.43L257.449,77.342z
		 M258.639,80.348l-0.546-1.396l-0.554,1.396H258.639z"/>
	<path fill="#FFFFFF" d="M264.146,77.377h1.365v4.902h-1.365V77.377z"/>
	<path fill="#FFFFFF" d="M269.207,77.377h1.359v3.712h2.373v1.19h-3.732V77.377z"/>
	<path fill="#FFFFFF" d="M275.949,81.551l0.756-0.902c0.482,0.386,1.021,0.588,1.59,0.588c0.363,0,0.561-0.127,0.561-0.336v-0.015
		c0-0.202-0.16-0.315-0.825-0.47c-1.044-0.238-1.851-0.532-1.851-1.541v-0.014c0-0.91,0.723-1.568,1.898-1.568
		c0.832,0,1.482,0.225,2.018,0.65l-0.68,0.959c-0.447-0.314-0.938-0.482-1.373-0.482c-0.329,0-0.49,0.141-0.49,0.314v0.015
		c0,0.226,0.168,0.321,0.848,0.478c1.128,0.244,1.828,0.608,1.828,1.526v0.015c0,1-0.791,1.598-1.981,1.598
		C277.377,82.363,276.55,82.09,275.949,81.551z"/>
</g>
<g>
	<path fill="#FFFFFF" d="M14.24,79.842v-0.014c0-1.408,1.134-2.551,2.646-2.551c1.514,0,2.634,1.129,2.634,2.537v0.014
		c0,1.406-1.135,2.549-2.647,2.549C15.361,82.377,14.24,81.25,14.24,79.842z M18.134,79.842v-0.014c0-0.708-0.511-1.324-1.261-1.324
		c-0.742,0-1.239,0.604-1.239,1.311v0.016c0,0.707,0.511,1.322,1.253,1.322C17.637,81.15,18.134,80.55,18.134,79.842z"/>
	<path fill="#FFFFFF" d="M22.318,77.377h1.52l1.114,3.104l1.113-3.104h1.492l-1.989,4.938h-1.261L22.318,77.377z"/>
	<path fill="#FFFFFF" d="M30.83,77.377h3.942v1.155h-2.598v0.741h2.353v1.072h-2.353v0.776h2.633v1.153h-3.978L30.83,77.377
		L30.83,77.377z"/>
	<path fill="#FFFFFF" d="M38.299,77.377h2.318c0.749,0,1.268,0.195,1.597,0.532c0.287,0.28,0.434,0.657,0.434,1.142v0.014
		c0,0.75-0.398,1.248-1.008,1.506l1.169,1.709h-1.568l-0.987-1.482h-0.015h-0.582v1.482h-1.358V77.377z M40.554,79.729
		c0.462,0,0.729-0.224,0.729-0.58v-0.015c0-0.386-0.28-0.581-0.735-0.581h-0.89v1.176H40.554z"/>
	<path fill="#FFFFFF" d="M45.6,77.377h1.52l1.114,3.104l1.113-3.104h1.492l-1.989,4.938h-1.261L45.6,77.377z"/>
	<path fill="#FFFFFF" d="M54.14,77.377h1.366v4.902H54.14V77.377z"/>
	<path fill="#FFFFFF" d="M59.201,77.377h3.942v1.155h-2.598v0.741h2.353v1.072h-2.353v0.776h2.633v1.153H59.2L59.201,77.377
		L59.201,77.377z"/>
	<path fill="#FFFFFF" d="M66.341,77.377h1.436l0.854,2.836l0.945-2.852h1.17l0.945,2.852l0.854-2.836h1.407l-1.639,4.938h-1.184
		l-0.987-2.82l-0.98,2.82h-1.184L66.341,77.377z"/>
</g>
<g>
	<g>
		<path fill="#FFFFFF" d="M141.317,36.113v-2.752h1.38v2.725c0,0.707,0.357,1.043,0.903,1.043c0.547,0,0.903-0.322,0.903-1.009
			v-2.759h1.38v2.717c0,1.583-0.903,2.276-2.297,2.276S141.317,37.647,141.317,36.113z"/>
		<path fill="#FFFFFF" d="M149.116,37.535l0.756-0.903c0.483,0.385,1.022,0.588,1.589,0.588c0.365,0,0.561-0.126,0.561-0.336V36.87
			c0-0.203-0.16-0.315-0.826-0.47c-1.042-0.238-1.848-0.532-1.848-1.541v-0.014c0-0.91,0.722-1.568,1.898-1.568
			c0.834,0,1.483,0.224,2.019,0.651l-0.681,0.959c-0.446-0.315-0.938-0.483-1.373-0.483c-0.329,0-0.489,0.141-0.489,0.315v0.014
			c0,0.225,0.168,0.322,0.848,0.477c1.127,0.245,1.828,0.609,1.828,1.527v0.014c0,1.001-0.791,1.597-1.981,1.597
			C150.545,38.347,149.718,38.074,149.116,37.535z"/>
		<path fill="#FFFFFF" d="M156.852,33.361h3.942v1.155h-2.599v0.742h2.353v1.072h-2.353v0.777h2.634v1.155h-3.979v-4.901H156.852z"
			/>
		<path fill="#FFFFFF" d="M133.051,44.326h1.31l2.088,4.938h-1.457l-0.357-0.875h-1.891l-0.351,0.875h-1.429L133.051,44.326z
			 M134.241,47.331l-0.546-1.395l-0.554,1.395H134.241z"/>
		<path fill="#FFFFFF" d="M139.722,44.361h2.318c0.749,0,1.268,0.195,1.597,0.532c0.287,0.28,0.434,0.658,0.434,1.142v0.014
			c0,0.75-0.398,1.247-1.008,1.506l1.169,1.709h-1.568l-0.987-1.484h-0.015h-0.581v1.484h-1.358L139.722,44.361L139.722,44.361z
			 M141.977,46.713c0.462,0,0.729-0.224,0.729-0.581v-0.014c0-0.386-0.28-0.581-0.735-0.581h-0.89v1.176H141.977z"/>
		<path fill="#FFFFFF" d="M147.555,44.361h2.319c0.749,0,1.267,0.195,1.597,0.532c0.286,0.28,0.434,0.658,0.434,1.142v0.014
			c0,0.75-0.397,1.247-1.008,1.506l1.17,1.709h-1.568l-0.987-1.484h-0.015h-0.581v1.484h-1.358L147.555,44.361L147.555,44.361z
			 M149.81,46.713c0.462,0,0.728-0.224,0.728-0.581v-0.014c0-0.386-0.28-0.581-0.735-0.581h-0.89v1.176H149.81z"/>
		<path fill="#FFFFFF" d="M155.221,46.826v-0.014c0-1.408,1.135-2.55,2.647-2.55c1.512,0,2.633,1.128,2.633,2.536v0.014
			c0,1.407-1.135,2.549-2.647,2.549C156.342,49.361,155.221,48.234,155.221,46.826z M159.113,46.826v-0.014
			c0-0.708-0.512-1.324-1.262-1.324c-0.742,0-1.238,0.603-1.238,1.311v0.014c0,0.707,0.511,1.323,1.255,1.323
			C158.616,48.135,159.113,47.534,159.113,46.826z"/>
		<path fill="#FFFFFF" d="M163.396,44.361h1.436l0.855,2.836l0.943-2.851h1.17l0.945,2.851l0.854-2.836h1.407l-1.639,4.938h-1.185
			l-0.988-2.822l-0.979,2.822h-1.184L163.396,44.361z"/>
		<path fill="#FFFFFF" d="M137.671,55.359h1.358v1.988l1.688-1.988h1.611l-1.856,2.106l1.919,2.795h-1.632l-1.232-1.819
			l-0.497,0.554v1.269h-1.358L137.671,55.359L137.671,55.359z"/>
		<path fill="#FFFFFF" d="M145.581,55.359h3.943v1.156h-2.598v0.74h2.353v1.072h-2.353v0.775h2.633v1.155h-3.978V55.359
			L145.581,55.359z"/>
		<path fill="#FFFFFF" d="M154.464,58.428l-1.86-3.066h1.547l1.009,1.785l1.016-1.785h1.521l-1.862,3.047v1.855h-1.367
			L154.464,58.428L154.464,58.428z"/>
		<path fill="#FFFFFF" d="M160.296,59.534l0.756-0.903c0.482,0.385,1.021,0.588,1.591,0.588c0.362,0,0.562-0.126,0.562-0.336v-0.014
			c0-0.203-0.162-0.314-0.826-0.471c-1.045-0.237-1.851-0.531-1.851-1.541v-0.015c0-0.909,0.722-1.567,1.897-1.567
			c0.832,0,1.484,0.225,2.017,0.65l-0.678,0.959c-0.449-0.314-0.938-0.482-1.373-0.482c-0.33,0-0.49,0.142-0.49,0.314v0.016
			c0,0.225,0.168,0.322,0.849,0.477c1.127,0.245,1.828,0.609,1.828,1.527v0.014c0,1.001-0.793,1.598-1.981,1.598
			C161.725,60.348,160.896,60.073,160.296,59.534z"/>
	</g>
	
		<rect x="128.488" y="25.312" transform="matrix(0.7071 0.7071 -0.7071 0.7071 78.0312 -92.7608)" fill="none" stroke="#FFFFFF" stroke-width="1.5" stroke-miterlimit="10" width="45" height="44.999"/>
</g>
</svg>
