<?xml version="1.0" encoding="utf-8"?>
<!-- Generator: Adobe Illustrator 16.2.1, SVG Export Plug-In . SVG Version: 6.00 Build 0)  -->
<!DOCTYPE svg PUBLIC "-//W3C//DTD SVG 1.1//EN" "http://www.w3.org/Graphics/SVG/1.1/DTD/svg11.dtd">
<svg version="1.1" id="Layer_1" xmlns="http://www.w3.org/2000/svg" xmlns:xlink="http://www.w3.org/1999/xlink" x="0px" y="0px"
	 width="150px" height="50px" viewBox="0 0 150 50" enable-background="new 0 0 150 50" xml:space="preserve">
<g id="Layer_2" display="none">
	<line id="XMLID_1_" display="inline" fill="none" x1="87.975" y1="3.001" x2="87.975" y2="80.547"/>
	<g display="inline" enable-background="new    ">
		<path fill="none" d="M119.468,21.329l-2.753,7.385h-1.354L109.4,11.052c-1.043-2.854-2.192-3.935-3.938-4.145V6.628h12.062v0.279
			c-1.147,0.105-1.774,0.628-1.774,1.671c0,0.592,0.312,1.603,0.729,2.891L119.468,21.329z M132.078,21.329l-2.752,7.385h-1.359
			l-6.229-18.428c-0.771-2.265-1.396-3.17-2.961-3.379V6.628h11.635v0.279c-1.288,0.105-1.951,0.731-1.951,1.708
			c0,0.591,0.208,1.603,0.627,2.856L132.078,21.329z M140.752,6.628v0.279c-1.393,0.244-2.473,0.836-3.413,1.847
			c-0.976,1.08-1.708,2.438-2.438,4.18l-0.276-0.138c0.243-0.976,0.562-2.751,0.562-3.553c0-1.464-1.021-2.16-2.52-2.334v-0.28
			L140.752,6.628L140.752,6.628z"/>
	</g>
	<g display="inline" enable-background="new    ">
		<path fill="none" d="M141.583,12.795c-1.08,0.487-1.881,2.159-1.881,5.993c0,4.145,1.985,6.131,5.017,6.131
			c2.16,0,3.413-0.801,4.227-1.916l0.209,0.14c-0.451,1.952-2.438,5.712-7.244,5.712c-5.122,0-7.664-3.797-7.664-7.837
			c0-4.703,3.102-7.909,7.352-8.5L141.583,12.795L141.583,12.795z M140.711,18.09v-0.245l3.146-0.453
			c-0.07-2.194-0.453-4.319-1.476-4.633v-0.28c4.32,0.175,6.2,2.718,6.2,5.61L140.711,18.09L140.711,18.09z"/>
		<path fill="none" d="M155.374,28.854c-1.562,0-3.798-0.521-4.738-0.938l-0.173-4.981h0.243c0.628,2.265,3.136,5.226,4.668,5.71
			V28.854L155.374,28.854z M156.279,12.758c-0.696,0.174-1.497,0.768-1.497,1.951c0,1.604,1.776,2.474,3.413,3.484
			c2.299,1.394,4.32,2.856,4.32,5.157c0,3.378-2.334,5.259-6.104,5.503v-0.209c1.046-0.209,1.776-0.871,1.776-2.194
			c0-1.463-1.604-2.37-3.448-3.414c-2.021-1.185-4.112-2.542-4.112-5.47c0-2.752,2.311-4.737,5.646-5.052L156.279,12.758
			L156.279,12.758z M157.255,12.479c1.672,0,3.729,0.384,4.285,0.592l0.174,4.668h-0.231c-0.627-2.194-2.52-4.703-4.228-5.015
			V12.479z"/>
		<path fill="none" d="M165.577,8.684c0-1.254-0.312-1.671-0.938-2.125l-0.602-0.384V6.001l7.002-2.02l0.104,0.07
			c-0.033,1.428-0.104,3.448-0.104,4.843v16.79c0,1.951,0.562,2.404,1.812,2.648v0.244h-9.062v-0.244
			c1.289-0.245,1.775-0.662,1.775-2.648L165.577,8.684L165.577,8.684z"/>
		<path fill="none" d="M181.252,12.795c-1.08,0.487-1.881,2.159-1.881,5.993c0,4.145,1.984,6.131,5.021,6.131
			c2.146,0,3.399-0.801,4.213-1.916l0.211,0.14c-0.453,1.952-2.439,5.712-7.246,5.712c-5.121,0-7.664-3.797-7.664-7.837
			c0-4.703,3.1-7.909,7.352-8.5L181.252,12.795L181.252,12.795z M180.382,18.09v-0.245l3.146-0.453
			c-0.068-2.194-0.451-4.319-1.463-4.633v-0.28c4.312,0.175,6.188,2.718,6.188,5.61L180.382,18.09L180.382,18.09z"/>
		<path fill="none" d="M197.654,12.898v0.279c-0.973,0.104-1.604,0.591-1.604,1.429c0,0.417,0.276,1.254,0.603,1.985l2.369,5.993
			l-2.688,6.34h-0.243l-5.396-12.959c-0.836-1.985-1.566-2.577-2.82-2.786V12.9L197.654,12.898L197.654,12.898z M190.828,36.832
			c-1.219,0-2.403-0.87-2.403-2.333c0-1.429,1.114-2.3,2.271-2.3c1.675,0,2.267,1.254,2.476,2.404
			c0.628-0.383,1.463-1.358,1.707-1.776l0.244,0.104C194.311,34.951,192.953,36.832,190.828,36.832z M205.842,12.898v0.279
			c-1.811,0.279-3.623,1.915-4.877,4.737l-0.271-0.244c0.104-0.244,0.521-1.603,0.521-2.438c0-1.22-0.729-1.951-2.021-2.055v-0.279
			H205.842L205.842,12.898z"/>
	</g>
	<g display="inline" enable-background="new    ">
		<path fill="none" d="M107.729,59.338l-0.383-6.967h0.312c0.871,3.273,3.589,7.002,6.097,7.768v0.314
			C111.525,60.279,108.633,59.757,107.729,59.338z M114.973,60.453v-0.35c1.674-0.244,2.895-1.463,2.895-3.562
			c0-2.268-1.85-3.271-5.055-5.087c-2.818-1.522-5.229-3.479-5.229-6.938c0-4.312,4.006-6.341,7.562-6.582v0.313
			c-1.463,0.209-2.404,1.188-2.404,3.136c0,2.547,2.265,3.557,4.982,5.121c2.683,1.53,5.434,2.959,5.434,6.76
			C123.159,57.875,119.641,60.21,114.973,60.453z M121.801,44.566c-0.976-2.896-2.646-5.678-5.469-6.312v-0.312
			c1.324,0,4.396,0.455,5.504,0.838l0.279,5.775h-0.314V44.566L121.801,44.566z"/>
		<path fill="none" d="M134.479,44.395c-1.396,0.277-3.729,1.854-3.729,6.025c0,4.633,2.368,6.027,4.562,6.027
			c1.881,0,3.479-0.768,4.18-1.775l0.209,0.139c-0.487,2.125-2.334,5.646-7.178,5.646c-4.812,0-7.246-3.622-7.246-7.631
			c0-5.018,4.6-8.395,9.197-8.708L134.479,44.395L134.479,44.395z M137.055,44.43c1.278,0,2.396,1.078,2.396,2.403
			c0,1.289-1.115,2.403-2.396,2.403c-1.324,0-2.402-1.114-2.402-2.403C134.652,45.508,135.73,44.43,137.055,44.43z"/>
		<path fill="none" d="M147.573,57.562c0,1.672,0.452,2.146,1.603,2.369v0.23h-8.849v-0.23c1.254-0.244,1.776-0.664,1.776-2.649
			V40.352c0-1.219-0.314-1.67-0.94-2.09c-0.14-0.14-0.453-0.349-0.593-0.419V37.67l7.003-2.02l0.104,0.067
			c-0.026,1.431-0.104,3.449-0.104,4.845V57.562L147.573,57.562z M152.311,49.549c0-1.812-0.729-2.611-2.369-2.611
			c-0.562,0-1.148,0.146-1.604,0.312v-0.104c0.979-1.568,3.064-3.067,5.33-3.067c3.104,0,4.076,1.987,4.076,4.704v8.5
			c0,1.986,0.556,2.404,1.812,2.648v0.231h-8.896v-0.231c1.188-0.209,1.646-0.695,1.646-2.369L152.311,49.549L152.311,49.549z"/>
		<path fill="none" d="M168.576,57.734v0.141c-0.279,0.836-1.743,2.578-3.975,2.578c-2.61,0-3.979-1.742-3.979-3.901
			c0-1.849,0.979-3.032,1.646-3.274c0.688-0.23,4.459-1.146,5.98-1.521V52c-0.591,0.232-1.354,0.561-1.701,1.045
			c-0.354,0.521-0.562,1.312-0.562,2.125c0,2.15,0.488,2.854,1.533,2.854C167.913,58.016,168.4,57.875,168.576,57.734z
			 M163.838,46.623c1.15,0,2.062,0.906,2.062,2.02c0,1.15-0.906,2.062-2.062,2.062c-1.104,0-2.021-0.906-2.021-2.062
			C161.816,47.529,162.723,46.623,163.838,46.623z M167.844,39.725c0,1.254-1.011,2.334-2.265,2.334
			c-1.253,0-2.265-1.08-2.265-2.334s1.012-2.264,2.265-2.264C166.833,37.461,167.844,38.471,167.844,39.725z M163.872,45.857
			c1.358-0.941,3.448-1.777,5.296-1.777c3.832,0,5.329,1.848,5.329,4.843v7.733c0,1.047,0.418,1.464,1.255,1.464
			c0.354,0,0.695-0.14,0.869-0.243v0.139c-0.453,1.188-1.771,2.438-3.971,2.438c-2.371,0-3.59-1.394-3.59-4.041v-7.177
			c0-2.51-2.062-3.275-5.19-3.275v-0.104H163.872z M174.637,39.725c0,1.254-0.979,2.334-2.271,2.334c-1.22,0-2.229-1.08-2.229-2.334
			s1.012-2.264,2.229-2.264C173.661,37.461,174.637,38.471,174.637,39.725z"/>
		<path fill="none" d="M178.534,47.878c0-1.776-0.312-2.334-2.021-2.612v-0.279l7.42-0.801L184,44.221v10.557
			c0,1.949,0.562,2.728,2.159,2.728c0.627,0,1.149-0.146,1.604-0.396v0.146c-0.771,1.562-2.125,3.17-4.812,3.17
			c-2.821,0-4.424-1.525-4.424-4.667L178.534,47.878L178.534,47.878z M193.932,56.307c0,1.672,0.352,2.092,1.07,2.51
			c0.277,0.068,0.729,0.313,0.939,0.354v0.173l-7.354,1.014l-0.146-0.062V47.88c0-1.776-0.211-2.334-1.916-2.612V44.99l7.312-0.803
			l0.062,0.035v12.086h0.018v-0.002H193.932L193.932,56.307z"/>
		<path fill="none" d="M196.297,37.879v-0.174l7.072-2.055l0.104,0.067c-0.033,1.431-0.104,3.449-0.104,4.845v15.151
			c0,0.804,0.14,1.951,0.523,2.787c0.349,0.835,0.896,1.497,1.705,1.672v0.278c-3.392-0.176-4.736-1.604-5.517-2.059h-0.021
			l-2.369,1.465l-0.211-0.104c0.312-0.837,0.42-2.893,0.42-4.318V40.421c0-1.253-0.314-1.671-0.941-2.125L196.297,37.879z
			 M206.434,60.139c1.979-0.348,3.205-2.854,3.205-6.896c0-4.599-1.324-7.142-4.111-7.142c-0.418,0-1.045,0.14-1.463,0.35v-0.105
			c0.869-0.975,2.812-2.265,4.979-2.265c4.146,0,6.373,2.37,6.373,7.315c0,4.391-2.854,8.562-8.979,9.058L206.434,60.139
			L206.434,60.139z"/>
		<path fill="none" d="M218.415,40.283c0-1.254-0.312-1.672-0.938-2.125l-0.603-0.383V37.6l7.002-2.02l0.104,0.07
			c-0.033,1.428-0.104,3.449-0.104,4.843v16.79c0,1.951,0.562,2.404,1.812,2.648v0.231h-9.062v-0.231
			c1.283-0.244,1.771-0.662,1.771-2.648L218.415,40.283L218.415,40.283z"/>
		<path fill="none" d="M234.089,44.395c-1.08,0.486-1.882,2.16-1.882,5.992c0,4.146,1.986,6.131,5.021,6.131
			c2.146,0,3.412-0.801,4.213-1.914l0.211,0.146c-0.453,1.943-2.439,5.713-7.248,5.713c-5.119,0-7.662-3.798-7.662-7.838
			c0-4.703,3.1-7.909,7.351-8.5L234.089,44.395L234.089,44.395z M233.218,49.689v-0.246l3.146-0.452
			c-0.067-2.193-0.45-4.319-1.463-4.632v-0.28c4.312,0.175,6.188,2.718,6.188,5.61H233.218L233.218,49.689z"/>
	</g>
	<g display="inline">
		<g>
			<g>
				<path fill="none" d="M68.919,61.346c-1.995,0-3.001-0.884-3.893-1.67c-0.812-0.699-1.447-1.261-2.819-1.261
					s-2.011,0.556-2.812,1.261c-0.896,0.778-1.909,1.67-3.896,1.67c-1.979,0-2.979-0.884-3.88-1.67
					c-0.818-0.699-1.447-1.261-2.818-1.261c-1.384,0-2.016,0.556-2.812,1.261c-0.896,0.778-1.907,1.67-3.896,1.67
					c-1.979,0-2.99-0.884-3.889-1.67c-0.809-0.699-1.446-1.261-2.819-1.261c-1.364,0-2.007,0.556-2.812,1.261
					c-0.896,0.778-1.904,1.67-3.879,1.67c-1.995,0-3.001-0.884-3.896-1.67c-0.812-0.699-1.445-1.261-2.815-1.261
					c-1.365,0-2.02,0.556-2.813,1.261c-0.896,0.778-1.907,1.67-3.896,1.67c-1.979,0-2.989-0.884-3.896-1.67
					c-0.83-0.699-1.468-1.261-2.839-1.261c-1.375,0-2.015,0.558-2.82,1.265c-0.895,0.78-1.898,1.666-3.889,1.666
					c-0.465,0-0.83-0.363-0.83-0.812c0-0.446,0.365-0.814,0.822-0.814c1.373,0,2.004-0.557,2.821-1.262
					c0.894-0.782,1.896-1.666,3.884-1.666c1.994,0,3,0.884,3.894,1.666c0.812,0.705,1.454,1.262,2.821,1.262
					c1.372,0,2.013-0.557,2.818-1.262c0.895-0.782,1.911-1.666,3.893-1.666c1.985,0,2.997,0.884,3.896,1.666
					c0.811,0.705,1.438,1.262,2.812,1.262c1.373,0,2.003-0.557,2.818-1.262c0.894-0.782,1.902-1.666,3.883-1.666
					c1.984,0,2.996,0.884,3.892,1.666c0.812,0.705,1.448,1.262,2.818,1.262c1.375,0,2.015-0.557,2.821-1.262
					c0.892-0.782,1.899-1.666,3.892-1.666c1.984,0,2.987,0.884,3.879,1.666c0.818,0.705,1.451,1.262,2.818,1.262
					c1.372,0,2.011-0.557,2.821-1.262c0.89-0.782,1.897-1.666,3.888-1.666c1.991,0,2.997,0.884,3.888,1.666
					c0.815,0.705,1.441,1.262,2.821,1.262c0.447,0,0.812,0.364,0.812,0.814C69.727,60.982,69.365,61.346,68.919,61.346z"/>
			</g>
			<g>
				<path fill="none" d="M68.919,61.346c-1.995,0-3.001-0.884-3.893-1.67c-0.812-0.699-1.447-1.261-2.819-1.261
					s-2.011,0.556-2.812,1.261c-0.896,0.778-1.909,1.67-3.896,1.67c-1.979,0-2.979-0.884-3.88-1.67
					c-0.818-0.699-1.447-1.261-2.818-1.261c-1.384,0-2.016,0.556-2.812,1.261c-0.896,0.778-1.907,1.67-3.896,1.67
					c-1.979,0-2.99-0.884-3.889-1.67c-0.809-0.699-1.446-1.261-2.819-1.261c-1.364,0-2.007,0.556-2.812,1.261
					c-0.896,0.778-1.904,1.67-3.879,1.67c-1.995,0-3.001-0.884-3.896-1.67c-0.812-0.699-1.445-1.261-2.815-1.261
					c-1.365,0-2.02,0.556-2.813,1.261c-0.896,0.778-1.907,1.67-3.896,1.67c-1.979,0-2.989-0.884-3.896-1.67
					c-0.83-0.699-1.468-1.261-2.839-1.261c-1.375,0-2.015,0.558-2.82,1.265c-0.895,0.78-1.898,1.666-3.889,1.666
					c-0.465,0-0.83-0.363-0.83-0.812c0-0.446,0.365-0.814,0.822-0.814c1.373,0,2.004-0.557,2.821-1.262
					c0.894-0.782,1.896-1.666,3.884-1.666c1.994,0,3,0.884,3.894,1.666c0.812,0.705,1.454,1.262,2.821,1.262
					c1.372,0,2.013-0.557,2.818-1.262c0.895-0.782,1.911-1.666,3.893-1.666c1.985,0,2.997,0.884,3.896,1.666
					c0.811,0.705,1.438,1.262,2.812,1.262c1.373,0,2.003-0.557,2.818-1.262c0.894-0.782,1.902-1.666,3.883-1.666
					c1.984,0,2.996,0.884,3.892,1.666c0.812,0.705,1.448,1.262,2.818,1.262c1.375,0,2.015-0.557,2.821-1.262
					c0.892-0.782,1.899-1.666,3.892-1.666c1.984,0,2.987,0.884,3.879,1.666c0.818,0.705,1.451,1.262,2.818,1.262
					c1.372,0,2.011-0.557,2.821-1.262c0.89-0.782,1.897-1.666,3.888-1.666c1.991,0,2.997,0.884,3.888,1.666
					c0.815,0.705,1.441,1.262,2.821,1.262c0.447,0,0.812,0.364,0.812,0.814C69.727,60.982,69.365,61.346,68.919,61.346z"/>
			</g>
		</g>
		<g>
			<path fill="none" d="M59.508,59.169c-0.271,0-0.551-0.132-0.729-0.374L42.135,35.986L25.5,58.795
				c-0.297,0.402-0.869,0.493-1.271,0.203c-0.405-0.301-0.494-0.871-0.198-1.283L41.4,33.896c0.173-0.235,0.438-0.377,0.741-0.377
				l0,0c0.277,0,0.562,0.141,0.729,0.377l17.374,23.816c0.312,0.403,0.212,0.98-0.199,1.283
				C59.884,59.114,59.695,59.169,59.508,59.169z"/>
		</g>
		<g>
			<path fill="none" d="M13.367,61.188c-0.184,0-0.37-0.06-0.537-0.178c-0.409-0.298-0.498-0.869-0.2-1.277l14.896-20.418
				c0.17-0.229,0.438-0.375,0.729-0.375l0,0c0.291,0,0.566,0.146,0.738,0.375l4.96,6.811c0.305,0.396,0.213,0.979-0.205,1.273
				c-0.396,0.293-0.978,0.205-1.271-0.203l-4.229-5.774L14.106,60.812C13.929,61.057,13.651,61.188,13.367,61.188z"/>
		</g>
		<g>
			<path fill="none" d="M27.792,55.018c-0.133,0-0.262-0.021-0.39-0.084c-6.583-3.082-10.839-9.771-10.839-17.035
				c0-10.359,8.429-18.792,18.794-18.792c10.354,0,18.785,8.432,18.785,18.792c0,3.194-0.812,6.35-2.357,9.125
				c-0.246,0.438-0.801,0.604-1.244,0.354c-0.438-0.244-0.602-0.802-0.354-1.246c1.393-2.503,2.137-5.35,2.137-8.231
				c0-9.352-7.608-16.959-16.962-16.959c-9.355,0-16.967,7.61-16.967,16.959c0,6.561,3.841,12.594,9.783,15.375
				c0.458,0.225,0.646,0.771,0.438,1.229C28.466,54.82,28.135,55.018,27.792,55.018z"/>
		</g>
		<g>
			<path fill="none" d="M44.785,45.904c-0.229,0-0.45-0.086-0.634-0.258l-2.127-2.062l-2.134,2.062
				c-0.354,0.344-0.916,0.344-1.273,0l-2.75-2.666c-0.36-0.354-0.374-0.938-0.024-1.295c0.354-0.362,0.938-0.375,1.305-0.021
				l2.124,2.053l2.125-2.053c0.354-0.344,0.917-0.344,1.271,0l2.128,2.053l2.142-2.054c0.354-0.351,0.938-0.34,1.294,0.022
				c0.354,0.354,0.354,0.938-0.021,1.295l-2.764,2.666C45.242,45.816,45.013,45.904,44.785,45.904z"/>
		</g>
		<g>
			<path fill="none" d="M33.838,16.217c-0.466,0-0.871-0.356-0.917-0.833l-0.724-8.021c-0.045-0.505,0.326-0.947,0.822-0.995
				c0.498-0.038,0.954,0.326,1.006,0.829l0.724,8.021c0.046,0.502-0.325,0.948-0.829,0.994
				C33.894,16.216,33.863,16.217,33.838,16.217z"/>
		</g>
		<g>
			<path fill="none" d="M26.945,17.792c-0.354,0-0.693-0.208-0.843-0.554l-3.168-7.403c-0.206-0.464,0.018-1.002,0.479-1.202
				c0.463-0.2,1,0.017,1.198,0.48l3.173,7.404c0.203,0.466-0.021,1.002-0.477,1.202C27.185,17.768,27.065,17.792,26.945,17.792z"/>
		</g>
		<g>
			<path fill="none" d="M20.873,21.421c-0.259,0-0.511-0.106-0.688-0.313l-5.312-6.065c-0.33-0.38-0.291-0.96,0.09-1.291
				c0.392-0.332,0.975-0.294,1.305,0.086l5.292,6.065c0.341,0.38,0.303,0.959-0.077,1.291
				C21.302,21.344,21.084,21.421,20.873,21.421z"/>
		</g>
		<g>
			<path fill="none" d="M16.219,26.746c-0.154,0-0.312-0.042-0.472-0.129L8.833,22.49c-0.435-0.258-0.587-0.82-0.312-1.256
				c0.258-0.435,0.812-0.577,1.254-0.317l6.917,4.125c0.435,0.26,0.564,0.821,0.312,1.257
				C16.834,26.586,16.527,26.746,16.219,26.746z"/>
		</g>
		<g>
			<path fill="none" d="M13.44,33.251c-0.07,0-0.132-0.007-0.213-0.024l-7.85-1.787c-0.494-0.11-0.8-0.603-0.681-1.096
				c0.113-0.492,0.602-0.805,1.096-0.691l7.855,1.789c0.495,0.113,0.8,0.604,0.688,1.099C14.234,32.961,13.858,33.251,13.44,33.251z
				"/>
		</g>
		<g>
			<path fill="none" d="M4.781,41.021c-0.468,0-0.871-0.356-0.917-0.834C3.82,39.686,4.19,39.24,4.695,39.193l8.017-0.729
				c0.521-0.041,0.957,0.325,1.006,0.83c0.056,0.502-0.314,0.949-0.818,0.994l-8.03,0.729C4.837,41.021,4.809,41.021,4.781,41.021z"
				/>
		</g>
		<g>
			<path fill="none" d="M6.974,50.361c-0.354,0-0.688-0.207-0.853-0.553c-0.188-0.478,0.024-1.004,0.489-1.203l7.405-3.17
				c0.465-0.201,1.006,0.016,1.194,0.479c0.196,0.464-0.021,1.002-0.481,1.199l-7.4,3.173C7.217,50.339,7.095,50.361,6.974,50.361z"
				/>
		</g>
		<g>
			<path fill="none" d="M65.138,46.086c-0.066,0-0.146-0.007-0.207-0.023l-7.854-1.789c-0.495-0.104-0.8-0.604-0.688-1.098
				c0.107-0.49,0.596-0.804,1.103-0.688l7.854,1.789c0.48,0.113,0.8,0.602,0.681,1.096C65.933,45.796,65.556,46.086,65.138,46.086z"
				/>
		</g>
		<g>
			<path fill="none" d="M57.915,37.252c-0.467,0-0.871-0.355-0.917-0.834c-0.044-0.502,0.324-0.947,0.831-0.992l8.021-0.727
				c0.499-0.04,0.957,0.326,0.984,0.828c0.042,0.502-0.312,0.949-0.814,0.992l-8.024,0.728
				C57.971,37.25,57.942,37.252,57.915,37.252z"/>
		</g>
		<g>
			<path fill="none" d="M56.342,30.355c-0.352,0-0.688-0.207-0.843-0.556c-0.198-0.465,0.024-1.003,0.483-1.2l7.406-3.169
				c0.463-0.201,1.002,0.017,1.188,0.481c0.209,0.465-0.016,1.002-0.479,1.202l-7.4,3.166
				C56.584,30.331,56.462,30.355,56.342,30.355z"/>
		</g>
		<g>
			<path fill="none" d="M52.714,24.283c-0.252,0-0.509-0.106-0.688-0.312c-0.332-0.38-0.292-0.96,0.086-1.292l6.062-5.303
				c0.392-0.333,0.975-0.292,1.305,0.087c0.332,0.378,0.292,0.959-0.098,1.292l-6.062,5.301
				C53.144,24.209,52.928,24.283,52.714,24.283z"/>
		</g>
		<g>
			<path fill="none" d="M47.388,19.629c-0.165,0-0.323-0.042-0.479-0.129c-0.438-0.26-0.584-0.822-0.312-1.256l4.129-6.917
				c0.258-0.434,0.812-0.575,1.247-0.316c0.438,0.26,0.584,0.822,0.312,1.255l-4.132,6.917
				C48.002,19.471,47.697,19.629,47.388,19.629z"/>
		</g>
		<g>
			<path fill="none" d="M40.884,16.851c-0.062,0-0.128-0.006-0.207-0.021c-0.482-0.114-0.8-0.604-0.688-1.096l1.788-7.854
				c0.118-0.495,0.604-0.8,1.104-0.689c0.494,0.114,0.812,0.602,0.688,1.096l-1.793,7.854C41.677,16.564,41.3,16.851,40.884,16.851z
				"/>
		</g>
	</g>
</g>
<g id="Layer_1_1_">
	<g enable-background="new    ">
		<path fill="#FFFFFF" d="M11.358,14.075l-2.231,5.991H8.025L3.192,5.738C2.347,3.421,1.413,2.548,0,2.377V2.149h9.777v0.226
			C8.846,2.461,8.338,2.884,8.338,3.73c0,0.48,0.256,1.3,0.592,2.344L11.358,14.075z M21.588,14.075l-2.231,5.991h-1.099
			L13.201,5.117c-0.623-1.838-1.131-2.571-2.399-2.741V2.149h9.438v0.226c-1.046,0.086-1.583,0.592-1.583,1.384
			c0,0.481,0.168,1.301,0.509,2.318L21.588,14.075z M28.623,2.15v0.226c-1.13,0.198-2.007,0.678-2.769,1.499
			c-0.792,0.875-1.387,1.978-1.978,3.392L23.65,7.154c0.196-0.792,0.456-2.233,0.456-2.882c0-1.188-0.82-1.751-2.034-1.894V2.15
			H28.623L28.623,2.15z"/>
	</g>
	<g enable-background="new    ">
		<path fill="#FFFFFF" d="M29.297,7.151c-0.872,0.395-1.524,1.752-1.524,4.861c0,3.361,1.608,4.972,4.069,4.972
			c1.751,0,2.771-0.649,3.421-1.555l0.168,0.114c-0.366,1.583-1.979,4.636-5.875,4.636c-4.154,0-6.218-3.082-6.218-6.358
			c0-3.814,2.517-6.415,5.965-6.895L29.297,7.151L29.297,7.151z M28.591,11.445v-0.197l2.543-0.367
			c-0.056-1.781-0.365-3.504-1.188-3.758V6.896c3.498,0.142,5.024,2.204,5.024,4.55L28.591,11.445L28.591,11.445z"/>
		<path fill="#FFFFFF" d="M40.486,20.178c-1.27,0-3.084-0.425-3.842-0.764l-0.141-4.04h0.193c0.506,1.836,2.545,4.239,3.787,4.633
			L40.486,20.178L40.486,20.178z M41.22,7.119c-0.565,0.142-1.215,0.625-1.215,1.583c0,1.301,1.438,2.007,2.77,2.827
			c1.863,1.131,3.503,2.317,3.503,4.183c0,2.74-1.894,4.267-4.949,4.464v-0.169c0.851-0.169,1.438-0.707,1.438-1.78
			c0-1.187-1.299-1.922-2.795-2.769c-1.641-0.962-3.336-2.063-3.336-4.437c0-2.232,1.869-3.842,4.582-4.099L41.22,7.119L41.22,7.119
			z M42.011,6.896c1.357,0,3.023,0.311,3.474,0.48l0.142,3.787h-0.194c-0.51-1.779-2.036-3.815-3.424-4.068L42.011,6.896
			L42.011,6.896z"/>
		<path fill="#FFFFFF" d="M48.759,3.819c0-1.017-0.254-1.356-0.76-1.724L47.52,1.783V1.639L53.196,0l0.085,0.056
			c-0.025,1.159-0.085,2.797-0.085,3.928v13.622c0,1.582,0.456,1.949,1.47,2.146v0.197h-7.352v-0.197
			c1.047-0.199,1.438-0.538,1.438-2.146V3.819H48.759z"/>
		<path fill="#FFFFFF" d="M61.474,7.151c-0.877,0.395-1.53,1.752-1.53,4.861c0,3.361,1.61,4.972,4.076,4.972
			c1.75,0,2.769-0.649,3.422-1.555l0.169,0.114c-0.365,1.583-1.98,4.636-5.879,4.636c-4.153,0-6.219-3.08-6.219-6.358
			c0-3.814,2.517-6.415,5.966-6.895L61.474,7.151L61.474,7.151z M60.769,11.445v-0.197l2.544-0.367
			c-0.056-1.781-0.367-3.504-1.188-3.758V6.895c3.5,0.142,5.031,2.205,5.031,4.55h-6.391H60.769L60.769,11.445z"/>
		<path fill="#FFFFFF" d="M74.787,7.236v0.227c-0.79,0.084-1.299,0.48-1.299,1.159c0,0.338,0.225,1.017,0.482,1.61l1.922,4.86
			l-2.183,5.143h-0.193L69.138,9.724c-0.682-1.61-1.272-2.09-2.293-2.26V7.237L74.787,7.236L74.787,7.236z M69.247,26.652
			c-0.987,0-1.946-0.707-1.946-1.896c0-1.159,0.905-1.865,1.84-1.865c1.359,0,1.845,1.019,2.012,1.949
			c0.509-0.31,1.188-1.102,1.387-1.44l0.194,0.086C72.074,25.125,70.972,26.652,69.247,26.652z M81.426,7.236v0.227
			c-1.469,0.227-2.939,1.552-3.953,3.842l-0.227-0.199c0.088-0.198,0.428-1.3,0.428-1.978c0-0.99-0.592-1.583-1.641-1.667V7.235
			L81.426,7.236L81.426,7.236z"/>
	</g>
	<g enable-background="new    ">
		<path fill="#FFFFFF" d="M1.838,44.906l-0.311-5.651h0.252c0.707,2.653,2.912,5.681,4.947,6.304v0.256
			C4.918,45.671,2.57,45.247,1.838,44.906z M7.717,45.814v-0.287c1.358-0.195,2.345-1.188,2.345-2.881
			c0-1.838-1.498-2.654-4.099-4.125c-2.291-1.242-4.239-2.823-4.239-5.627c0-3.504,3.25-5.146,6.134-5.344v0.256
			c-1.188,0.17-1.949,0.961-1.949,2.543c0,2.062,1.84,2.883,4.044,4.149c2.176,1.241,4.406,2.399,4.406,5.481
			C14.354,43.723,11.501,45.611,7.717,45.814z M13.25,32.927c-0.792-2.347-2.148-4.606-4.437-5.116v-0.256
			c1.076,0,3.566,0.365,4.467,0.678l0.224,4.691h-0.255L13.25,32.927L13.25,32.927z"/>
		<path fill="#FFFFFF" d="M23.537,32.788c-1.129,0.224-3.023,1.498-3.023,4.885c0,3.761,1.919,4.888,3.702,4.888
			c1.527,0,2.823-0.625,3.391-1.435l0.169,0.108c-0.395,1.725-1.893,4.582-5.821,4.582c-3.902,0-5.875-2.942-5.875-6.188
			c0-4.069,3.732-6.808,7.46-7.063L23.537,32.788L23.537,32.788z M25.624,32.814c1.047,0,1.946,0.875,1.946,1.949
			c0,1.045-0.902,1.944-1.946,1.944c-1.073,0-1.947-0.899-1.947-1.944C23.678,33.686,24.552,32.814,25.624,32.814z"/>
		<path fill="#FFFFFF" d="M34.155,43.471c0,1.357,0.368,1.747,1.302,1.92v0.194h-7.179v-0.194c1.016-0.195,1.441-0.537,1.441-2.148
			V29.504c0-0.988-0.257-1.354-0.763-1.693c-0.115-0.112-0.365-0.283-0.48-0.342v-0.14l5.674-1.64l0.086,0.058
			c-0.027,1.157-0.086,2.797-0.086,3.926L34.155,43.471L34.155,43.471z M37.999,36.963c0-1.467-0.593-2.117-1.92-2.117
			c-0.456,0-0.932,0.116-1.3,0.256v-0.086c0.79-1.271,2.484-2.488,4.324-2.488c2.518,0,3.303,1.609,3.303,3.815v6.896
			c0,1.608,0.455,1.946,1.473,2.146v0.199H36.67v-0.199c0.963-0.168,1.328-0.562,1.328-1.92L37.999,36.963L37.999,36.963z"/>
		<path fill="#FFFFFF" d="M51.192,43.607v0.119c-0.226,0.674-1.414,2.088-3.224,2.088c-2.117,0-3.222-1.414-3.222-3.164
			c0-1.5,0.793-2.459,1.329-2.653c0.564-0.194,3.616-0.931,4.857-1.239v0.198c-0.48,0.19-1.102,0.451-1.383,0.845
			c-0.289,0.424-0.457,1.07-0.457,1.723c0,1.752,0.396,2.315,1.244,2.315C50.655,43.835,51.049,43.723,51.192,43.607z
			 M47.347,34.593c0.932,0,1.672,0.735,1.672,1.638c0,0.935-0.736,1.672-1.672,1.672c-0.901,0-1.637-0.736-1.637-1.672
			C45.709,35.328,46.445,34.593,47.347,34.593z M50.597,28.997c0,1.015-0.823,1.896-1.84,1.896c-1.017,0-1.842-0.879-1.842-1.896
			s0.821-1.836,1.842-1.836C49.777,27.157,50.597,27.98,50.597,28.997z M47.377,33.971c1.103-0.765,2.797-1.438,4.293-1.438
			c3.111,0,4.324,1.499,4.324,3.927v6.272c0,0.849,0.34,1.188,1.02,1.188c0.287,0,0.562-0.114,0.703-0.194v0.115
			c-0.36,0.965-1.438,1.979-3.222,1.979c-1.922,0-2.912-1.129-2.912-3.279v-5.82c0-2.035-1.67-2.654-4.212-2.654v-0.088
			L47.377,33.971L47.377,33.971z M56.11,28.997c0,1.015-0.794,1.896-1.845,1.896c-0.989,0-1.809-0.879-1.809-1.896
			s0.819-1.836,1.809-1.836C55.319,27.157,56.11,27.98,56.11,28.997z"/>
		<path fill="#FFFFFF" d="M59.271,35.611c0-1.439-0.256-1.895-1.637-2.119v-0.225l6.015-0.651l0.053,0.026v8.563
			c0,1.577,0.456,2.201,1.75,2.201c0.509,0,0.935-0.115,1.302-0.312v0.116c-0.625,1.271-1.724,2.569-3.906,2.569
			c-2.289,0-3.588-1.237-3.588-3.785L59.271,35.611L59.271,35.611z M71.765,42.448c0,1.356,0.287,1.696,0.877,2.036
			c0.226,0.053,0.593,0.254,0.762,0.283v0.141l-5.965,0.824l-0.116-0.053V35.614c0-1.44-0.173-1.896-1.558-2.119V33.27l5.935-0.647
			l0.058,0.028v9.805L71.765,42.448L71.765,42.448z"/>
		<path fill="#FFFFFF" d="M73.683,27.499v-0.142l5.735-1.666l0.086,0.057c-0.025,1.158-0.086,2.797-0.086,3.926v12.297
			c0,0.651,0.115,1.582,0.428,2.26c0.285,0.677,0.73,1.218,1.385,1.357v0.227c-2.739-0.146-3.842-1.305-4.465-1.672h-0.022
			l-1.92,1.189l-0.17-0.087c0.254-0.677,0.338-2.347,0.338-3.499V29.562c0-1.019-0.254-1.354-0.761-1.725L73.683,27.499z
			 M81.906,45.559c1.609-0.283,2.602-2.313,2.602-5.596c0-3.734-1.074-5.796-3.332-5.796c-0.338,0-0.846,0.114-1.188,0.285v-0.086
			c0.705-0.789,2.289-1.839,4.039-1.839c3.359,0,5.168,1.921,5.168,5.935c0,3.565-2.314,6.947-7.287,7.353v-0.256H81.906z"/>
		<path fill="#FFFFFF" d="M91.623,29.448c0-1.017-0.256-1.356-0.762-1.724l-0.48-0.312v-0.141l5.678-1.642l0.086,0.058
			c-0.024,1.158-0.086,2.797-0.086,3.93v13.624c0,1.579,0.457,1.946,1.471,2.147v0.193h-7.35v-0.193
			c1.045-0.195,1.438-0.535,1.438-2.147L91.623,29.448L91.623,29.448z"/>
		<path fill="#FFFFFF" d="M104.338,32.788c-0.877,0.394-1.531,1.75-1.531,4.86c0,3.357,1.609,4.977,4.074,4.977
			c1.748,0,2.77-0.648,3.42-1.555l0.17,0.113c-0.365,1.582-1.979,4.635-5.877,4.635c-4.15,0-6.217-3.084-6.217-6.358
			c0-3.813,2.518-6.415,5.965-6.896L104.338,32.788L104.338,32.788z M103.631,37.08v-0.198l2.543-0.366
			c-0.057-1.773-0.365-3.502-1.188-3.757v-0.225c3.5,0.141,5.027,2.202,5.027,4.55h-6.388L103.631,37.08L103.631,37.08z"/>
	</g>
</g>
</svg>
