<?xml version="1.0" encoding="utf-8"?>
<!-- Generator: Adobe Illustrator 16.2.1, SVG Export Plug-In . SVG Version: 6.00 Build 0)  -->
<!DOCTYPE svg PUBLIC "-//W3C//DTD SVG 1.1//EN" "http://www.w3.org/Graphics/SVG/1.1/DTD/svg11.dtd">
<svg version="1.1" id="Layer_1" xmlns="http://www.w3.org/2000/svg" xmlns:xlink="http://www.w3.org/1999/xlink" x="0px" y="0px"
	 width="200px" height="100px" viewBox="0 0 200 100" enable-background="new 0 0 200 100" xml:space="preserve">
<g>
	<path fill="#FFFFFF" d="M52.178,35.261l-4.017,10.781h-1.983L37.482,20.26c-1.526-4.17-3.204-5.747-5.747-6.052v-0.406h17.595
		v0.406c-1.678,0.153-2.593,0.916-2.593,2.441c0,0.864,0.458,2.339,1.068,4.221L52.178,35.261z M70.586,35.261l-4.018,10.781h-1.983
		l-9.103-26.9c-1.119-3.306-2.034-4.628-4.322-4.934v-0.406h16.984v0.406c-1.881,0.153-2.847,1.069-2.847,2.492
		c0,0.865,0.305,2.34,0.915,4.17L70.586,35.261z M83.248,13.802v0.406c-2.034,0.357-3.61,1.222-4.983,2.696
		c-1.423,1.576-2.492,3.56-3.56,6.102l-0.407-0.203c0.356-1.425,0.813-4.019,0.813-5.188c0-2.135-1.475-3.152-3.661-3.407v-0.406
		L83.248,13.802L83.248,13.802z"/>
	<path fill="#FFFFFF" d="M83.989,22.804c-1.577,0.711-2.746,3.152-2.746,8.746c0,6.052,2.898,8.95,7.322,8.95
		c3.153,0,4.983-1.169,6.153-2.796l0.305,0.203c-0.661,2.847-3.56,8.34-10.577,8.34c-7.475,0-11.187-5.543-11.187-11.442
		c0-6.865,4.526-11.543,10.73-12.408V22.804z M82.718,30.533v-0.357l4.577-0.661c-0.102-3.203-0.662-6.306-2.136-6.762v-0.407
		c6.306,0.254,9.051,3.966,9.051,8.188L82.718,30.533L82.718,30.533z"/>
	<path fill="#FFFFFF" d="M103.291,46.246c-2.289,0-5.543-0.763-6.917-1.375l-0.254-7.271h0.356c0.915,3.305,4.576,7.628,6.814,8.339
		V46.246L103.291,46.246z M104.612,22.752c-1.018,0.253-2.187,1.118-2.187,2.847c0,2.34,2.593,3.611,4.982,5.085
		c3.356,2.034,6.307,4.17,6.307,7.526c0,4.932-3.407,7.679-8.899,8.035V45.94c1.525-0.305,2.593-1.272,2.593-3.205
		c0-2.135-2.338-3.458-5.033-4.982c-2.949-1.729-6-3.712-6-7.983c0-4.018,3.356-6.917,8.238-7.374V22.752z M106.036,22.345
		c2.441,0,5.441,0.559,6.255,0.864l0.254,6.814h-0.355c-0.915-3.204-3.662-6.865-6.153-7.323V22.345L106.036,22.345z"/>
	<path fill="#FFFFFF" d="M115.64,16.802c0-1.83-0.458-2.441-1.373-3.102l-0.865-0.56v-0.254l10.222-2.949l0.152,0.102
		c-0.051,2.084-0.152,5.035-0.152,7.069v24.51c0,2.846,0.813,3.508,2.645,3.865v0.356h-13.221v-0.356
		c1.881-0.357,2.593-0.967,2.593-3.865V16.802z"/>
	<path fill="#FFFFFF" d="M136.212,22.804c-1.576,0.711-2.746,3.152-2.746,8.746c0,6.052,2.898,8.95,7.322,8.95
		c3.152,0,4.983-1.169,6.153-2.796l0.305,0.203c-0.66,2.847-3.56,8.34-10.577,8.34c-7.476,0-11.187-5.543-11.187-11.442
		c0-6.865,4.525-11.543,10.729-12.408V22.804z M134.94,30.533v-0.357l4.576-0.661c-0.102-3.203-0.66-6.306-2.136-6.762v-0.407
		c6.306,0.254,9.052,3.966,9.052,8.188L134.94,30.533L134.94,30.533z"/>
	<path fill="#FFFFFF" d="M158.16,22.956v0.407c-1.424,0.152-2.338,0.865-2.338,2.084c0,0.61,0.406,1.831,0.864,2.899l3.457,8.746
		l-3.915,9.256h-0.356l-7.881-18.917c-1.222-2.898-2.289-3.763-4.12-4.068v-0.407H158.16z M148.194,57.891
		c-1.78,0-3.51-1.271-3.51-3.406c0-2.085,1.628-3.356,3.306-3.356c2.44,0,3.305,1.83,3.61,3.509c0.915-0.56,2.137-1.982,2.492-2.593
		l0.355,0.152C153.279,55.146,151.296,57.891,148.194,57.891z M170.11,22.956v0.407c-2.644,0.407-5.288,2.796-7.118,6.916
		l-0.407-0.356c0.152-0.356,0.763-2.339,0.763-3.56c0-1.78-1.067-2.848-2.949-3v-0.407H170.11z"/>
	<path fill="#FFFFFF" d="M11.559,88.203L11,78.031h0.458c1.271,4.78,5.238,10.222,8.899,11.342v0.457
		C17.102,89.576,12.882,88.812,11.559,88.203z M22.136,89.83v-0.508c2.441-0.356,4.221-2.136,4.221-5.188
		c0-3.305-2.695-4.78-7.374-7.425c-4.119-2.237-7.628-5.085-7.628-10.119c0-6.307,5.848-9.256,11.035-9.611v0.458
		c-2.136,0.305-3.508,1.729-3.508,4.576c0,3.713,3.305,5.188,7.271,7.476c3.916,2.238,7.933,4.323,7.933,9.865
		C34.086,86.067,28.95,89.475,22.136,89.83z M32.103,66.642c-1.423-4.221-3.864-8.289-7.983-9.205v-0.458
		c1.933,0,6.408,0.661,8.035,1.221l0.406,8.442H32.103z"/>
	<path fill="#FFFFFF" d="M48.352,66.388c-2.034,0.406-5.441,2.694-5.441,8.797c0,6.764,3.458,8.797,6.661,8.797
		c2.747,0,5.085-1.119,6.103-2.593l0.305,0.204c-0.712,3.102-3.407,8.237-10.476,8.237c-7.017,0-10.577-5.288-10.577-11.137
		c0-7.322,6.712-12.256,13.425-12.712L48.352,66.388L48.352,66.388z M52.115,66.438c1.881,0,3.509,1.577,3.509,3.509
		c0,1.882-1.628,3.508-3.509,3.508c-1.933,0-3.509-1.626-3.509-3.508C48.606,68.015,50.182,66.438,52.115,66.438z"/>
	<path fill="#FFFFFF" d="M65.394,85.609c0,2.44,0.662,3.153,2.339,3.456v0.356H54.816v-0.356c1.831-0.355,2.593-0.966,2.593-3.864
		V60.487c0-1.78-0.458-2.44-1.373-3.051c-0.203-0.204-0.661-0.509-0.864-0.61v-0.254l10.221-2.95l0.153,0.102
		c-0.051,2.085-0.153,5.034-0.153,7.069L65.394,85.609L65.394,85.609z M72.31,73.912c0-2.644-1.067-3.813-3.458-3.813
		c-0.813,0-1.678,0.204-2.338,0.458v-0.152c1.423-2.289,4.474-4.476,7.779-4.476c4.526,0,5.95,2.899,5.95,6.866v12.407
		c0,2.898,0.813,3.509,2.644,3.865v0.356H69.92v-0.356c1.729-0.304,2.39-1.017,2.39-3.457L72.31,73.912L72.31,73.912z"/>
	<path fill="#FFFFFF" d="M93.526,85.863v0.204c-0.407,1.22-2.542,3.763-5.796,3.763c-3.814,0-5.797-2.543-5.797-5.696
		c0-2.695,1.424-4.424,2.39-4.78c1.017-0.355,6.508-1.679,8.746-2.237v0.355c-0.864,0.356-1.983,0.813-2.491,1.526
		c-0.509,0.763-0.813,1.933-0.813,3.102c0,3.154,0.712,4.17,2.237,4.17C92.559,86.27,93.272,86.067,93.526,85.863z M86.61,69.642
		c1.678,0,3,1.321,3,2.949c0,1.677-1.322,3-3,3c-1.627,0-2.949-1.322-2.949-3C83.661,70.963,84.983,69.642,86.61,69.642z
		 M92.458,59.571c0,1.832-1.475,3.407-3.306,3.407c-1.83,0-3.305-1.575-3.305-3.407c0-1.83,1.475-3.304,3.305-3.304
		C90.983,56.268,92.458,57.741,92.458,59.571z M86.661,68.522c1.983-1.373,5.035-2.594,7.729-2.594c5.593,0,7.78,2.696,7.78,7.069
		v11.289c0,1.525,0.61,2.135,1.83,2.135c0.509,0,1.017-0.202,1.271-0.354v0.202c-0.662,1.729-2.594,3.561-5.797,3.561
		c-3.458,0-5.238-2.034-5.238-5.899V73.454c0-3.66-3-4.779-7.577-4.779L86.661,68.522L86.661,68.522z M102.374,59.571
		c0,1.832-1.424,3.407-3.305,3.407c-1.78,0-3.254-1.575-3.254-3.407c0-1.83,1.475-3.304,3.254-3.304
		C100.95,56.268,102.374,57.741,102.374,59.571z"/>
	<path fill="#FFFFFF" d="M105.697,71.472c0-2.594-0.458-3.406-2.95-3.813v-0.406l10.832-1.171l0.102,0.052v15.408
		c0,2.848,0.813,3.967,3.153,3.967c0.915,0,1.678-0.204,2.339-0.559v0.203c-1.119,2.287-3.102,4.628-7.018,4.628
		c-4.119,0-6.458-2.237-6.458-6.814V71.472L105.697,71.472z M128.173,83.778c0,2.441,0.509,3.051,1.577,3.661
		c0.406,0.103,1.066,0.458,1.372,0.509v0.255l-10.729,1.474l-0.203-0.101V71.472c0-2.594-0.305-3.406-2.798-3.813v-0.406
		l10.679-1.171l0.103,0.052V83.778L128.173,83.778z"/>
	<path fill="#FFFFFF" d="M129.496,56.877v-0.254l10.323-3.001l0.153,0.102c-0.052,2.085-0.153,5.034-0.153,7.069v22.121
		c0,1.169,0.203,2.848,0.763,4.068c0.509,1.221,1.322,2.188,2.492,2.439v0.408c-4.933-0.255-6.916-2.339-8.034-3.002h-0.051
		l-3.458,2.137l-0.305-0.152c0.458-1.221,0.61-4.221,0.61-6.307V60.589c0-1.831-0.457-2.441-1.374-3.103L129.496,56.877z
		 M144.294,89.372c2.897-0.509,4.679-4.17,4.679-10.069c0-6.712-1.933-10.425-6.001-10.425c-0.609,0-1.524,0.204-2.136,0.509v-0.152
		c1.272-1.423,4.119-3.306,7.271-3.306c6.052,0,9.306,3.458,9.306,10.68c0,6.407-4.17,12.51-13.12,13.222L144.294,89.372
		L144.294,89.372z"/>
	<path fill="#FFFFFF" d="M159.394,60.385c0-1.83-0.457-2.44-1.373-3.102l-0.864-0.56V56.47l10.222-2.949l0.152,0.102
		c-0.052,2.085-0.152,5.035-0.152,7.068v24.512c0,2.848,0.812,3.509,2.644,3.865v0.356h-13.221v-0.356
		c1.882-0.356,2.593-0.967,2.593-3.865V60.385L159.394,60.385z"/>
	<path fill="#FFFFFF" d="M179.965,66.388c-1.575,0.711-2.745,3.151-2.745,8.745c0,6.053,2.898,8.95,7.322,8.95
		c3.152,0,4.983-1.169,6.153-2.796L191,81.49c-0.661,2.848-3.56,8.34-10.577,8.34c-7.475,0-11.187-5.543-11.187-11.441
		c0-6.865,4.525-11.543,10.729-12.407V66.388z M178.694,74.116V73.76l4.576-0.661c-0.102-3.203-0.66-6.305-2.135-6.763v-0.407
		c6.305,0.255,9.051,3.967,9.051,8.188L178.694,74.116L178.694,74.116z"/>
</g>
</svg>
